<?xml version="1.0" standalone="no"?>
<!DOCTYPE svg PUBLIC "-//W3C//DTD SVG 20010904//EN"
 "http://www.w3.org/TR/2001/REC-SVG-20010904/DTD/svg10.dtd">
<svg version="1.0" xmlns="http://www.w3.org/2000/svg"
 width="152.000000pt" height="152.000000pt" viewBox="0 0 152.000000 152.000000"
 preserveAspectRatio="xMidYMid meet">

<g transform="translate(0.000000,152.000000) scale(0.100000,-0.100000)"
fill="#000000" stroke="none">
<path d="M655 1196 c-225 -55 -376 -281 -337 -506 42 -246 273 -413 513 -372
245 42 412 273 371 513 -44 258 -296 426 -547 365z m217 -262 c7 -7 -24 -64
-34 -64 -10 0 -10 32 -2 54 6 16 25 21 36 10z m-264 -50 c34 -23 55 -72 49
-111 -11 -68 -91 -143 -152 -143 -36 0 -75 25 -75 47 0 12 3 13 14 4 12 -10
15 -6 21 21 4 18 18 60 31 92 13 33 22 61 20 63 -2 3 -17 -2 -34 -11 -16 -8
-32 -12 -36 -9 -42 42 107 86 162 47z m143 -75 l22 -22 18 24 c14 18 21 21 30
12 8 -8 6 -25 -10 -68 -12 -32 -20 -60 -17 -62 7 -7 46 59 46 78 0 15 35 59
46 59 3 0 20 -10 36 -22 l31 -21 18 21 c10 13 23 20 33 16 14 -5 14 -10 1 -41
-21 -51 -19 -51 15 -5 20 27 35 40 45 36 19 -8 19 -8 -5 -74 l-20 -55 30 35
c30 33 31 34 21 7 -18 -46 -41 -87 -50 -87 -18 0 -33 31 -29 60 6 42 0 38 -23
-16 -11 -25 -26 -43 -32 -41 -13 4 -15 57 -4 100 10 36 -4 34 -25 -3 -10 -17
-27 -34 -39 -38 -21 -8 -21 -9 10 -31 17 -12 31 -31 31 -41 0 -21 -54 -70 -77
-70 -46 0 -72 72 -32 85 15 5 19 13 15 28 -3 12 0 27 6 34 6 8 6 13 1 13 -6 0
-18 -18 -28 -40 -19 -42 -35 -49 -54 -26 -8 10 -9 26 -2 57 14 60 14 64 -7 46
-10 -10 -22 -17 -25 -17 -12 0 -7 38 6 43 6 2 9 8 5 12 -11 11 -28 -4 -28 -26
0 -11 7 -33 15 -50 17 -33 9 -61 -25 -79 -23 -12 -50 11 -50 43 1 20 2 20 11
5 10 -18 39 -25 39 -10 -1 4 -7 18 -15 32 -19 33 -19 70 1 98 19 28 38 28 65
1z"/>
<path d="M554 862 c4 -7 -9 -53 -29 -103 -20 -50 -34 -93 -32 -96 3 -2 22 3
42 13 63 30 112 128 83 166 -15 20 -75 38 -64 20z"/>
<path d="M882 762 c-12 -35 -1 -50 18 -27 9 11 10 22 3 37 -9 21 -10 21 -21
-10z"/>
<path d="M853 643 c-7 -3 -13 -13 -13 -24 0 -14 7 -19 25 -19 15 0 25 6 25 14
0 18 -22 35 -37 29z"/>
</g>
</svg>
